<svg width="20" height="18" viewBox="0 0 20 18" fill="none" xmlns="http://www.w3.org/2000/svg">
<path d="M17.8201 9.24615C17.7833 9.16795 17.7643 9.08329 17.7643 8.99767C17.7643 8.91206 17.7833 8.8274 17.8201 8.74919L18.4032 7.54005C18.5245 7.28577 18.5495 6.99976 18.4742 6.73006C18.3989 6.46036 18.2278 6.22339 17.9897 6.05895L16.8545 5.27633C16.7811 5.2262 16.7197 5.16193 16.6745 5.08773C16.6292 5.01354 16.6011 4.93112 16.5919 4.84589L16.4492 3.52719C16.4189 3.24919 16.2881 2.98959 16.0791 2.79215C15.8701 2.5947 15.5955 2.47149 15.3016 2.44326L13.91 2.30631C13.8179 2.30023 13.7283 2.27541 13.6473 2.23354C13.5663 2.19166 13.4958 2.13373 13.4406 2.06369L12.6135 0.991511C12.4396 0.765724 12.1888 0.603536 11.9033 0.532261C11.6179 0.460987 11.3151 0.484981 11.0462 0.600203L9.77243 1.13434C9.69021 1.17069 9.60057 1.18953 9.50982 1.18953C9.41908 1.18953 9.32943 1.17069 9.24722 1.13434L7.96934 0.586507C7.70074 0.471048 7.39824 0.446931 7.113 0.518236C6.82777 0.589541 6.57733 0.75189 6.40405 0.977815L5.57695 2.05C5.52397 2.11947 5.45604 2.17752 5.37763 2.22035C5.29922 2.26318 5.21211 2.28981 5.12204 2.29848L3.72837 2.43544C3.43475 2.46373 3.16043 2.58702 2.95173 2.78449C2.74303 2.98197 2.61274 3.24153 2.58284 3.51936L2.43809 4.83807C2.43167 4.9252 2.40544 5.00999 2.36119 5.08665C2.31693 5.1633 2.25571 5.23001 2.18169 5.2822L1.04856 6.06482C0.809793 6.22878 0.638215 6.46575 0.562857 6.73564C0.487499 7.00553 0.512987 7.29177 0.635009 7.54592L1.19951 8.74919C1.23792 8.82699 1.25783 8.91181 1.25783 8.99767C1.25783 9.08354 1.23792 9.16836 1.19951 9.24615L0.620535 10.4553C0.498763 10.7098 0.473405 10.9962 0.548731 11.2664C0.624057 11.5365 0.795465 11.7738 1.03409 11.9384L2.16722 12.721C2.24063 12.7711 2.30199 12.8354 2.34725 12.9096C2.39252 12.9838 2.42066 13.0662 2.42982 13.1514L2.57457 14.4682C2.60439 14.7462 2.73461 15.006 2.94328 15.2038C3.15195 15.4016 3.4263 15.5253 3.7201 15.554L5.11377 15.689C5.20586 15.6951 5.29547 15.7199 5.37648 15.7618C5.45749 15.8037 5.52799 15.8616 5.58315 15.9317L6.41025 17.0058C6.58404 17.2311 6.83448 17.393 7.11951 17.4643C7.40455 17.5355 7.70681 17.5118 7.97555 17.3971L9.25342 16.8551C9.33607 16.8203 9.42554 16.8023 9.51603 16.8023C9.60651 16.8023 9.69598 16.8203 9.77863 16.8551L11.0503 17.4128C11.3193 17.5276 11.6219 17.5514 11.9073 17.4801C12.1927 17.4089 12.4435 17.2469 12.6177 17.0214L13.4448 15.9473C13.4977 15.8778 13.5657 15.8198 13.6441 15.7769C13.7225 15.7341 13.8096 15.7075 13.8997 15.6988L15.2913 15.5638C15.5853 15.5352 15.8599 15.4116 16.0689 15.2138C16.278 15.016 16.4086 14.7562 16.4389 14.4779L16.5816 13.1612C16.588 13.0741 16.6142 12.9893 16.6585 12.9126C16.7027 12.836 16.7639 12.7693 16.838 12.7171L17.9732 11.9344C18.2115 11.7697 18.3826 11.5324 18.4579 11.2623C18.5332 10.9923 18.5081 10.706 18.3867 10.4514L17.8201 9.24615Z" fill="#00D8FD"/>
<path d="M11.5793 18C11.3269 17.9997 11.0775 17.949 10.8473 17.8513L9.5694 17.3093C9.55347 17.3026 9.5362 17.2991 9.51875 17.2991C9.50129 17.2991 9.48402 17.3026 9.46809 17.3093L8.19021 17.8513C7.81172 18.0104 7.38699 18.0419 6.98695 17.9404C6.5869 17.8389 6.23577 17.6106 5.99218 17.2937L5.16921 16.2195C5.15877 16.206 5.14547 16.1947 5.13017 16.1863C5.11487 16.1779 5.09789 16.1725 5.0803 16.1706L3.6825 16.0435C3.26838 16.0032 2.88161 15.829 2.58743 15.5502C2.29324 15.2715 2.10964 14.9053 2.06758 14.5134L1.9249 13.1947C1.92393 13.1782 1.91939 13.162 1.91156 13.1472C1.90374 13.1324 1.8928 13.1193 1.87941 13.1086L0.74421 12.326C0.412195 12.0956 0.17296 11.765 0.0658554 11.3888C-0.0412494 11.0126 -0.00984649 10.6131 0.154899 10.256L0.727668 9.04687C0.734846 9.03146 0.738553 9.0148 0.738553 8.99796C0.738553 8.98111 0.734846 8.96446 0.727668 8.94904L0.154899 7.74186C-0.0125112 7.38361 -0.0453417 6.98195 0.061862 6.6036C0.169066 6.22526 0.40985 5.89301 0.74421 5.66206L1.87941 4.87944C1.8937 4.86955 1.90567 4.85697 1.91456 4.84249C1.92346 4.82801 1.92909 4.81195 1.9311 4.79531L2.06758 3.48443C2.11009 3.09288 2.29389 2.72715 2.58803 2.44883C2.88218 2.17051 3.26869 1.99659 3.6825 1.95637L5.0741 1.82137C5.09227 1.82098 5.11015 1.81695 5.12655 1.80952C5.14295 1.8021 5.15749 1.79147 5.16921 1.77832L5.99632 0.704182C6.23978 0.390466 6.58873 0.164391 6.98589 0.0630656C7.38304 -0.0382598 7.8048 -0.00881472 8.18194 0.146568L9.45775 0.688529C9.47404 0.695321 9.49164 0.698828 9.50944 0.698828C9.52724 0.698828 9.54485 0.695321 9.56113 0.688529L10.839 0.146568C11.2176 -0.0118382 11.6421 -0.0429029 12.042 0.0585346C12.4418 0.159972 12.793 0.387805 13.037 0.704182L13.8641 1.77832C13.8746 1.79184 13.8879 1.80317 13.9032 1.81159C13.9185 1.82 13.9355 1.82533 13.9531 1.82724L15.3467 1.96224C15.7585 2.00349 16.1428 2.17712 16.4356 2.45415C16.7283 2.73117 16.9118 3.09483 16.9554 3.48443L17.0981 4.80118C17.1001 4.81782 17.1058 4.83388 17.1147 4.84836C17.1236 4.86284 17.1355 4.87542 17.1498 4.88531L18.2829 5.66792C18.6176 5.89864 18.8586 6.23089 18.9659 6.60933C19.0731 6.98776 19.0401 7.38954 18.8723 7.74773L18.2995 8.95491C18.2923 8.97033 18.2886 8.98698 18.2886 9.00383C18.2886 9.02067 18.2923 9.03733 18.2995 9.05274L18.8723 10.2619C19.0401 10.6201 19.0731 11.0218 18.9659 11.4003C18.8586 11.7787 18.6176 12.111 18.2829 12.3417L17.1415 13.1086C17.1273 13.1185 17.1153 13.1311 17.1064 13.1456C17.0975 13.1601 17.0919 13.1761 17.0898 13.1928L16.9554 14.5134C16.9133 14.9056 16.7294 15.2721 16.4348 15.5508C16.1402 15.8296 15.7529 16.0036 15.3385 16.0435L13.9448 16.1785C13.9272 16.1804 13.9102 16.1857 13.8949 16.1941C13.8796 16.2025 13.8663 16.2139 13.8559 16.2274L13.0288 17.2996C12.8617 17.5152 12.6435 17.6909 12.3918 17.8125C12.1402 17.9341 11.8619 17.9983 11.5793 18ZM7.44375 0.978097C7.32278 0.97847 7.20361 1.00576 7.09585 1.05776C6.98809 1.10976 6.89477 1.18502 6.82342 1.27745L5.99632 2.34768C5.89995 2.47361 5.77635 2.5787 5.63374 2.65595C5.49113 2.7332 5.33278 2.78085 5.16921 2.79572L3.78795 2.93464C3.61233 2.95245 3.44845 3.02662 3.32356 3.14479C3.19866 3.26297 3.12028 3.41804 3.10146 3.58421L2.95878 4.90096C2.94116 5.05434 2.8895 5.20247 2.80718 5.33565C2.72487 5.46883 2.61376 5.58406 2.48113 5.67379L1.35006 6.45641C1.2072 6.55454 1.10437 6.69619 1.05881 6.85757C1.01325 7.01896 1.02775 7.19026 1.09986 7.34272L1.67263 8.54991C1.73912 8.6909 1.77348 8.84356 1.77348 8.99796C1.77348 9.15235 1.73912 9.30501 1.67263 9.446L1.09986 10.6571C1.02735 10.8095 1.01265 10.9809 1.05823 11.1424C1.10382 11.3039 1.20689 11.4455 1.35006 11.5434L2.48113 12.326C2.61403 12.4174 2.72496 12.5344 2.80658 12.6693C2.8882 12.8042 2.93866 12.9539 2.95464 13.1086L3.10146 14.4137C3.11947 14.5803 3.19753 14.736 3.32254 14.8547C3.44754 14.9733 3.61188 15.0476 3.78795 15.0652L5.17955 15.2021C5.34148 15.2186 5.49793 15.2672 5.63867 15.3447C5.77941 15.4223 5.90128 15.527 5.99632 15.6522L6.82342 16.7243C6.9271 16.8596 7.07666 16.957 7.24714 17.0005C7.41762 17.0439 7.59869 17.0307 7.76012 16.963L9.03592 16.4152C9.18532 16.3524 9.34698 16.3199 9.51047 16.3199C9.67396 16.3199 9.83563 16.3524 9.98502 16.4152L11.2629 16.9572C11.4243 17.0248 11.6054 17.038 11.7759 16.9946C11.9464 16.9512 12.0959 16.8537 12.1996 16.7185L13.0267 15.6522C13.1233 15.5264 13.2469 15.4214 13.3895 15.3442C13.532 15.267 13.6903 15.2192 13.8538 15.2041L15.2475 15.0671C15.4218 15.0474 15.5837 14.9717 15.7063 14.8529C15.8289 14.734 15.9049 14.579 15.9216 14.4137L16.0663 13.095C16.0845 12.9425 16.1362 12.7953 16.2181 12.6629C16.3 12.5304 16.4103 12.4157 16.5419 12.326L17.675 11.5434C17.8175 11.4454 17.9202 11.3042 17.966 11.1434C18.0119 10.9825 17.9983 10.8116 17.9273 10.6591L17.3483 9.44796C17.2819 9.3066 17.2476 9.15363 17.2476 8.99893C17.2476 8.84424 17.2819 8.69127 17.3483 8.54991L17.9211 7.34077C17.9917 7.1882 18.0051 7.01741 17.9593 6.85662C17.9134 6.69583 17.8109 6.55465 17.6688 6.45641L16.5419 5.67379C16.4088 5.58261 16.2977 5.46566 16.2161 5.33072C16.1344 5.19578 16.0841 5.04595 16.0684 4.89118L15.9216 3.58421C15.903 3.4176 15.8245 3.26211 15.6991 3.14383C15.5737 3.02555 15.4091 2.95168 15.233 2.93464L13.8393 2.79964C13.678 2.78219 13.5224 2.73296 13.3824 2.65512C13.2424 2.57727 13.1213 2.47254 13.0267 2.34768L12.1996 1.27745C12.0962 1.14243 11.9469 1.04519 11.7767 1.00208C11.6065 0.958967 11.4258 0.972607 11.265 1.04071L9.98502 1.58267C9.83563 1.6455 9.67396 1.67797 9.51047 1.67797C9.34698 1.67797 9.18532 1.6455 9.03592 1.58267L7.75805 1.04071C7.65928 0.998623 7.55206 0.977264 7.44375 0.978097Z" fill="white"/>
<path d="M14.1497 6.85527L13.06 5.82417L8.53159 10.109L5.96137 7.67702L4.86959 8.70811L8.53159 12.1731L14.1497 6.85527Z" fill="white"/>
</svg>
